<svg xmlns="http://www.w3.org/2000/svg" xmlns:xlink="http://www.w3.org/1999/xlink" width="200" zoomAndPan="magnify" viewBox="0 0 150 32.999998" height="44" preserveAspectRatio="xMidYMid meet" version="1.0"><defs><g/><clipPath id="d0a7eeaeb8"><path d="M 2.617188 0.574219 L 34.523438 0.574219 L 34.523438 32.476562 L 2.617188 32.476562 Z M 2.617188 0.574219 " clip-rule="nonzero"/></clipPath><clipPath id="87df822696"><path d="M 12.339844 10.21875 L 20.578125 10.21875 L 20.578125 19.304688 L 12.339844 19.304688 Z M 12.339844 10.21875 " clip-rule="nonzero"/></clipPath></defs><g clip-path="url(#d0a7eeaeb8)"><path fill="#bc1823" d="M 34.523438 16.527344 C 34.523438 25.335938 27.378906 32.480469 18.570312 32.480469 C 9.761719 32.480469 2.617188 25.335938 2.617188 16.527344 C 2.617188 7.714844 9.761719 0.574219 18.570312 0.574219 C 27.378906 0.574219 34.523438 7.714844 34.523438 16.527344 " fill-opacity="1" fill-rule="nonzero"/></g><path fill="#ffffff" d="M 19.53125 17.484375 C 17.851562 19.167969 15.125 19.167969 13.441406 17.484375 C 11.765625 15.808594 11.765625 13.082031 13.445312 11.398438 C 15.125 9.722656 17.847656 9.722656 19.527344 11.402344 C 21.210938 13.085938 21.210938 15.808594 19.53125 17.484375 Z M 11.417969 9.371094 C 8.617188 12.175781 8.617188 16.714844 11.414062 19.511719 C 13.867188 21.964844 17.652344 22.273438 20.441406 20.421875 L 25.796875 25.777344 L 27.824219 23.75 L 22.472656 18.394531 C 24.3125 15.617188 24.007812 11.828125 21.554688 9.371094 C 18.757812 6.578125 14.21875 6.578125 11.417969 9.371094 " fill-opacity="1" fill-rule="nonzero"/><g clip-path="url(#87df822696)"><path fill="#ffffff" d="M 20.464844 15.15625 C 20.441406 15.066406 20.28125 14.742188 20.210938 14.648438 C 20.144531 14.554688 20.09375 14.527344 19.972656 14.527344 C 19.882812 14.527344 19.515625 14.527344 19.335938 14.527344 C 19.269531 14.347656 18.933594 14.058594 18.070312 13.902344 C 18.078125 13.882812 18.089844 13.863281 18.097656 13.84375 C 18.234375 13.578125 18.25 13.355469 17.972656 13.03125 C 17.820312 12.851562 17.433594 12.625 17.648438 12.878906 C 17.902344 13.175781 17.707031 13.492188 17.570312 13.832031 C 17.378906 13.8125 17.164062 13.796875 16.929688 13.789062 C 17 13.636719 17.042969 13.445312 17.039062 13.199219 C 17.03125 12.023438 15.605469 11.898438 16.078125 10.796875 C 16.324219 10.21875 15.671875 10.871094 15.597656 11.304688 C 15.519531 11.777344 15.546875 11.980469 15.84375 12.46875 C 16.097656 12.875 16.382812 13.367188 16.285156 13.789062 C 16.078125 13.792969 15.882812 13.800781 15.703125 13.816406 C 15.703125 13.722656 15.679688 13.617188 15.625 13.492188 C 15.519531 13.246094 15.152344 12.855469 15.300781 13.207031 C 15.417969 13.480469 15.335938 13.679688 15.199219 13.863281 C 14.1875 13.996094 13.707031 14.269531 13.597656 14.527344 C 13.429688 14.527344 13.039062 14.527344 12.945312 14.527344 C 12.824219 14.527344 12.773438 14.554688 12.707031 14.648438 C 12.636719 14.742188 12.476562 15.066406 12.453125 15.15625 C 12.453125 15.15625 12.339844 15.492188 12.65625 15.492188 L 13.578125 15.492188 C 13.578125 16.71875 13.578125 17.828125 13.578125 18.308594 C 13.578125 18.449219 13.636719 18.511719 13.714844 18.589844 C 13.738281 18.613281 14.515625 19.304688 16.554688 19.304688 C 18.398438 19.304688 18.933594 18.773438 19.199219 18.578125 C 19.300781 18.476562 19.351562 18.398438 19.351562 18.265625 C 19.351562 17.597656 19.351562 16.480469 19.351562 15.492188 L 20.261719 15.492188 C 20.578125 15.492188 20.464844 15.15625 20.464844 15.15625 Z M 15.046875 14.054688 C 14.875 14.257812 14.695312 14.476562 14.691406 14.796875 C 14.6875 15.125 14.828125 15.328125 15.007812 15.453125 C 14.179688 15.269531 13.75 14.933594 13.75 14.628906 C 13.75 14.433594 14.171875 14.1875 15.046875 14.054688 Z M 12.863281 15.171875 C 12.734375 15.171875 12.78125 15.0625 12.824219 14.96875 C 12.878906 14.855469 12.917969 14.769531 13.078125 14.769531 C 13.1875 14.769531 13.429688 14.769531 13.578125 14.769531 C 13.578125 14.902344 13.578125 15.039062 13.578125 15.171875 C 13.3125 15.171875 12.921875 15.171875 12.863281 15.171875 Z M 16.457031 15.59375 C 16.046875 15.59375 15.679688 15.566406 15.359375 15.519531 C 15.324219 15.449219 15.246094 15.273438 15.21875 15.175781 C 15.160156 14.953125 15.246094 14.691406 15.421875 14.402344 C 15.515625 14.246094 15.621094 14.128906 15.671875 13.984375 C 15.84375 13.972656 16.03125 13.960938 16.226562 13.957031 C 16.21875 13.964844 16.214844 13.976562 16.210938 13.984375 C 16.117188 14.148438 15.960938 14.285156 15.921875 14.34375 C 15.898438 14.378906 15.898438 14.46875 16.019531 14.429688 C 16.324219 14.335938 16.636719 14.21875 16.832031 13.953125 C 17.085938 13.960938 17.3125 13.96875 17.515625 13.988281 C 17.464844 14.148438 17.445312 14.316406 17.503906 14.492188 C 17.648438 14.898438 18.027344 14.996094 18.167969 14.996094 C 18.199219 14.996094 18.292969 14.984375 18.230469 14.933594 C 18.199219 14.914062 18.058594 14.753906 18.003906 14.667969 C 17.917969 14.535156 17.929688 14.292969 18.011719 14.046875 C 18.886719 14.183594 19.175781 14.453125 19.1875 14.691406 C 19.1875 15 18.46875 15.59375 16.457031 15.59375 Z M 20.054688 15.171875 C 19.996094 15.171875 19.613281 15.171875 19.351562 15.171875 C 19.351562 15.03125 19.351562 14.898438 19.351562 14.769531 C 19.496094 14.769531 19.734375 14.769531 19.839844 14.769531 C 20 14.769531 20.039062 14.855469 20.09375 14.96875 C 20.136719 15.0625 20.183594 15.171875 20.054688 15.171875 Z M 20.054688 15.171875 " fill-opacity="1" fill-rule="nonzero"/></g><g fill="#000000" fill-opacity="1"><g transform="translate(36.575596, 25.839811)"><g><path d="M 11.636719 0.472656 C 18.863281 0.472656 21.558594 -2.074219 22.03125 -8.113281 L 16.613281 -8.113281 C 16.40625 -5.242188 15.132812 -3.761719 11.609375 -3.761719 C 8.054688 -3.761719 6.632812 -5.832031 6.632812 -9.832031 C 6.632812 -13.886719 8.171875 -15.929688 11.753906 -15.929688 C 15.191406 -15.929688 16.316406 -14.390625 16.554688 -11.726562 L 21.914062 -11.726562 C 21.496094 -17.382812 18.714844 -20.195312 11.667969 -20.195312 C 4.058594 -20.195312 1.183594 -15.101562 1.183594 -9.832031 C 1.183594 -4.414062 4.027344 0.472656 11.636719 0.472656 Z M 11.636719 0.472656 "/></g></g></g><g fill="#000000" fill-opacity="1"><g transform="translate(59.641688, 25.839811)"><g><path d="M 12.257812 -14.804688 L 12.257812 -7.847656 C 12.257812 -5.003906 11.074219 -3.640625 9.089844 -3.640625 C 7.285156 -3.640625 6.484375 -4.707031 6.484375 -6.691406 L 6.484375 -14.804688 L 1.390625 -14.804688 L 1.390625 -5.804688 C 1.390625 -1.925781 3.140625 0.472656 7.019531 0.472656 C 9.625 0.472656 11.3125 -0.769531 12.257812 -2.695312 L 12.257812 0 L 17.351562 0 L 17.351562 -14.804688 Z M 12.257812 -14.804688 "/></g></g></g><g fill="#000000" fill-opacity="1"><g transform="translate(78.503179, 25.839811)"><g><path d="M 1.421875 -16.613281 L 6.691406 -16.613281 L 6.691406 -19.691406 L 1.421875 -19.691406 Z M 1.511719 0 L 6.601562 0 L 6.601562 -14.804688 L 1.511719 -14.804688 Z M 1.511719 0 "/></g></g></g><g fill="#000000" fill-opacity="1"><g transform="translate(86.645896, 25.839811)"><g><path d="M 0.652344 -4.765625 C 0.769531 -2.042969 2.785156 0.472656 8.203125 0.472656 C 13.710938 0.472656 15.457031 -1.746094 15.457031 -4.558594 C 15.457031 -7.402344 14.007812 -8.824219 10.511719 -9.179688 L 7.460938 -9.476562 C 6.070312 -9.625 5.714844 -10.1875 5.714844 -10.808594 C 5.714844 -11.636719 6.367188 -12.257812 8.082031 -12.257812 C 9.710938 -12.257812 10.511719 -11.578125 10.660156 -10.421875 L 15.28125 -10.421875 C 14.984375 -13.886719 12.140625 -15.28125 8.054688 -15.28125 C 4.085938 -15.28125 1.066406 -13.859375 1.066406 -10.335938 C 1.066406 -7.757812 2.605469 -6.21875 5.476562 -5.894531 L 8.617188 -5.539062 C 10.335938 -5.332031 10.601562 -4.707031 10.601562 -3.96875 C 10.601562 -3.109375 9.949219 -2.578125 8.292969 -2.578125 C 6.394531 -2.578125 5.390625 -3.554688 5.269531 -4.765625 Z M 0.652344 -4.765625 "/></g></g></g><g fill="#000000" fill-opacity="1"><g transform="translate(102.872105, 25.839811)"><g><path d="M 1.421875 -16.613281 L 6.691406 -16.613281 L 6.691406 -19.691406 L 1.421875 -19.691406 Z M 1.511719 0 L 6.601562 0 L 6.601562 -14.804688 L 1.511719 -14.804688 Z M 1.511719 0 "/></g></g></g><g fill="#000000" fill-opacity="1"><g transform="translate(111.014819, 25.839811)"><g><path d="M 11.933594 -15.28125 C 9.296875 -15.28125 7.582031 -14.007812 6.601562 -12.050781 L 6.601562 -14.804688 L 1.511719 -14.804688 L 1.511719 0 L 6.601562 0 L 6.601562 -6.957031 C 6.601562 -9.859375 7.789062 -11.164062 9.832031 -11.164062 C 11.609375 -11.164062 12.40625 -10.097656 12.40625 -8.144531 L 12.40625 0 L 17.5 0 L 17.5 -9 C 17.5 -12.882812 15.8125 -15.28125 11.933594 -15.28125 Z M 11.933594 -15.28125 "/></g></g></g><g fill="#000000" fill-opacity="1"><g transform="translate(129.876308, 25.839811)"><g><path d="M 6.039062 0.386719 C 9.03125 0.386719 10.867188 -0.917969 11.609375 -3.078125 C 11.609375 -1.867188 11.695312 -0.859375 11.84375 0 L 16.226562 0 C 16.050781 -1.214844 15.960938 -2.515625 15.960938 -4.085938 L 15.960938 -9.980469 C 15.960938 -13.355469 13.652344 -15.28125 8.972656 -15.28125 C 4.292969 -15.28125 1.570312 -13.027344 1.421875 -9.890625 L 6.367188 -9.890625 C 6.394531 -11.191406 7.253906 -11.902344 9.03125 -11.902344 C 10.71875 -11.902344 11.253906 -11.371094 11.253906 -10.484375 C 11.253906 -9.710938 10.898438 -9.355469 9.535156 -9.121094 L 6.1875 -8.527344 C 2.101562 -7.847656 1.125 -6.277344 1.125 -3.910156 C 1.125 -1.304688 3.078125 0.386719 6.039062 0.386719 Z M 7.964844 -2.929688 C 6.929688 -2.929688 6.128906 -3.464844 6.128906 -4.5 C 6.128906 -5.507812 6.664062 -6.011719 8.082031 -6.367188 L 8.941406 -6.574219 C 9.859375 -6.8125 10.542969 -6.988281 11.253906 -7.519531 L 11.253906 -6.957031 C 11.253906 -4.292969 9.890625 -2.929688 7.964844 -2.929688 Z M 7.964844 -2.929688 "/></g></g></g></svg>